# xmcd CD database file
#
# Track frame offsets:
#	150
#	14864
#	27802
#	42792
#	61408
#
# Disc length: 994 seconds
#
# Revision: 1
# Processed by: cddbd v1.5.2PL0 Copyright (c) Steve Scherf et al.
# Submitted via: CDex 1.51
#
DISCID=3b03e005
DTITLE=The Vintage Gigolos - Up!
DYEAR=2012
DGENRE=Country
TTITLE0=Up!
TTITLE1=Reset the Time
TTITLE2=Sleepless Nights
TTITLE3=Sand in my Shoes
TTITLE4=Burn the City Down
EXTD=YEAR: 2012
EXTT0=
EXTT1=
EXTT2=
EXTT3=
EXTT4=
PLAYORDER=
